<mxfile host="Electron" modified="2024-03-29T09:47:05.201Z" agent="Mozilla/5.0 (X11; Linux x86_64) AppleWebKit/537.36 (KHTML, like Gecko) draw.io/24.1.0 Chrome/120.0.6099.109 Electron/28.1.0 Safari/537.36" etag="Pba4cXQKuqqBzqpzRWos" version="24.1.0" type="device">
  <diagram name="Page-1" id="-cMVqA2Gkwa5aGeDibPs">
    <mxGraphModel dx="1533" dy="1204" grid="1" gridSize="10" guides="1" tooltips="1" connect="1" arrows="1" fold="1" page="0" pageScale="1" pageWidth="413" pageHeight="291" math="1" shadow="0">
      <root>
        <mxCell id="0" />
        <mxCell id="1" parent="0" />
        <mxCell id="GCO7xrDp6TmdYOZJOnFd-2" value="&lt;font style=&quot;font-size: 10px;&quot;&gt;$$PGenPu$$&lt;/font&gt;" style="triangle;whiteSpace=wrap;html=1;align=left;" parent="1" vertex="1">
          <mxGeometry x="580" y="40" width="60" height="80" as="geometry" />
        </mxCell>
        <mxCell id="GCO7xrDp6TmdYOZJOnFd-126" value="$$\frac{tW2*s}{1+tW2*s}$$" style="rounded=0;whiteSpace=wrap;html=1;" parent="1" vertex="1">
          <mxGeometry x="960" y="280" width="80" height="80" as="geometry" />
        </mxCell>
        <mxCell id="pcb0Rrb9AqgbB0oOaPCg-23" value="&lt;font style=&quot;font-size: 10px;&quot;&gt;$$VPssPu$$&lt;/font&gt;" style="triangle;whiteSpace=wrap;html=1;align=left;" parent="1" vertex="1">
          <mxGeometry x="1720" y="160" width="60" height="80" as="geometry" />
        </mxCell>
        <mxCell id="KOxhOBrrnecnhVOKgOav-30" value="" style="edgeStyle=orthogonalEdgeStyle;rounded=0;orthogonalLoop=1;jettySize=auto;html=1;" parent="1" source="E1HJxTZ1KoTLzzK9DHDM-2" target="5vP0ZJHYgd1w3xuM4kYP-27" edge="1">
          <mxGeometry relative="1" as="geometry" />
        </mxCell>
        <mxCell id="E1HJxTZ1KoTLzzK9DHDM-2" value="$$\frac{tW3*s}{1+tW3*s}$$" style="whiteSpace=wrap;html=1;aspect=fixed;" parent="1" vertex="1">
          <mxGeometry x="1240" y="160" width="80" height="80" as="geometry" />
        </mxCell>
        <mxCell id="E1HJxTZ1KoTLzzK9DHDM-9" value="" style="edgeStyle=orthogonalEdgeStyle;rounded=0;orthogonalLoop=1;jettySize=auto;html=1;" parent="1" source="E1HJxTZ1KoTLzzK9DHDM-3" target="pcb0Rrb9AqgbB0oOaPCg-23" edge="1">
          <mxGeometry relative="1" as="geometry" />
        </mxCell>
        <mxCell id="E1HJxTZ1KoTLzzK9DHDM-3" value="" style="whiteSpace=wrap;html=1;aspect=fixed;" parent="1" vertex="1">
          <mxGeometry x="1600" y="160" width="80" height="80" as="geometry" />
        </mxCell>
        <mxCell id="E1HJxTZ1KoTLzzK9DHDM-4" value="" style="endArrow=none;html=1;" parent="1" edge="1">
          <mxGeometry width="50" height="50" relative="1" as="geometry">
            <mxPoint x="1628" y="215" as="sourcePoint" />
            <mxPoint x="1652" y="185" as="targetPoint" />
          </mxGeometry>
        </mxCell>
        <mxCell id="E1HJxTZ1KoTLzzK9DHDM-5" value="" style="endArrow=none;html=1;" parent="1" edge="1">
          <mxGeometry width="50" height="50" relative="1" as="geometry">
            <mxPoint x="1652" y="185" as="sourcePoint" />
            <mxPoint x="1672" y="185" as="targetPoint" />
          </mxGeometry>
        </mxCell>
        <mxCell id="E1HJxTZ1KoTLzzK9DHDM-6" value="&lt;font style=&quot;font-size: 8px;&quot;&gt;$$VPssMaxPu$$&lt;/font&gt;" style="text;html=1;strokeColor=none;fillColor=none;align=center;verticalAlign=middle;whiteSpace=wrap;rounded=0;fontSize=15;" parent="1" vertex="1">
          <mxGeometry x="1644" y="130" width="60" height="30" as="geometry" />
        </mxCell>
        <mxCell id="E1HJxTZ1KoTLzzK9DHDM-7" value="" style="endArrow=none;html=1;" parent="1" edge="1">
          <mxGeometry width="50" height="50" relative="1" as="geometry">
            <mxPoint x="1628" y="215" as="sourcePoint" />
            <mxPoint x="1608" y="215" as="targetPoint" />
          </mxGeometry>
        </mxCell>
        <mxCell id="E1HJxTZ1KoTLzzK9DHDM-8" value="&lt;font style=&quot;font-size: 8px;&quot;&gt;$$VPssMinPu$$&lt;/font&gt;" style="text;html=1;strokeColor=none;fillColor=none;align=center;verticalAlign=middle;whiteSpace=wrap;rounded=0;fontSize=15;" parent="1" vertex="1">
          <mxGeometry x="1580" y="240" width="60" height="30" as="geometry" />
        </mxCell>
        <mxCell id="5vP0ZJHYgd1w3xuM4kYP-1" value="&lt;font style=&quot;font-size: 7px;&quot;&gt;$$omegaPu$$&lt;/font&gt;" style="triangle;whiteSpace=wrap;html=1;align=left;" parent="1" vertex="1">
          <mxGeometry x="580" y="200" width="60" height="80" as="geometry" />
        </mxCell>
        <mxCell id="5vP0ZJHYgd1w3xuM4kYP-2" value="&lt;font style=&quot;font-size: 7px;&quot;&gt;$$omegaRefPu$$&lt;/font&gt;" style="triangle;whiteSpace=wrap;html=1;align=left;" parent="1" vertex="1">
          <mxGeometry x="580" y="360" width="60" height="80" as="geometry" />
        </mxCell>
        <mxCell id="5vP0ZJHYgd1w3xuM4kYP-3" value="&lt;table style=&quot;font-size: 10px;&quot;&gt;&lt;tbody&gt;&lt;tr&gt;&lt;td&gt;&lt;font style=&quot;font-size: 10px;&quot;&gt;$$KOmega$$&lt;/font&gt;&lt;/td&gt;&lt;/tr&gt;&lt;tr&gt;&lt;td&gt;&lt;font style=&quot;font-size: 10px;&quot;&gt;$$KOmegaRef$$&lt;/font&gt;&lt;/td&gt;&lt;/tr&gt;&lt;/tbody&gt;&lt;/table&gt;" style="whiteSpace=wrap;html=1;aspect=fixed;" parent="1" vertex="1">
          <mxGeometry x="720" y="280" width="80" height="80" as="geometry" />
        </mxCell>
        <mxCell id="KOxhOBrrnecnhVOKgOav-20" value="" style="edgeStyle=orthogonalEdgeStyle;rounded=0;orthogonalLoop=1;jettySize=auto;html=1;" parent="1" source="5vP0ZJHYgd1w3xuM4kYP-17" target="5vP0ZJHYgd1w3xuM4kYP-19" edge="1">
          <mxGeometry relative="1" as="geometry" />
        </mxCell>
        <mxCell id="5vP0ZJHYgd1w3xuM4kYP-17" value="$$\frac{1}{1+t1*s}$$" style="whiteSpace=wrap;html=1;aspect=fixed;" parent="1" vertex="1">
          <mxGeometry x="840" y="40" width="80" height="80" as="geometry" />
        </mxCell>
        <mxCell id="5vP0ZJHYgd1w3xuM4kYP-19" value="$$\frac{tW1*s}{1+tW1*s}$$" style="rounded=0;whiteSpace=wrap;html=1;" parent="1" vertex="1">
          <mxGeometry x="960" y="40" width="80" height="80" as="geometry" />
        </mxCell>
        <mxCell id="KOxhOBrrnecnhVOKgOav-17" value="" style="edgeStyle=orthogonalEdgeStyle;rounded=0;orthogonalLoop=1;jettySize=auto;html=1;" parent="1" source="5vP0ZJHYgd1w3xuM4kYP-22" target="GCO7xrDp6TmdYOZJOnFd-126" edge="1">
          <mxGeometry relative="1" as="geometry" />
        </mxCell>
        <mxCell id="5vP0ZJHYgd1w3xuM4kYP-22" value="$$\frac{1}{1+t2*s}$$" style="whiteSpace=wrap;html=1;aspect=fixed;" parent="1" vertex="1">
          <mxGeometry x="840" y="280" width="80" height="80" as="geometry" />
        </mxCell>
        <mxCell id="FAs9E9T3QIUfl0_epq-E-1" value="" style="edgeStyle=orthogonalEdgeStyle;rounded=0;orthogonalLoop=1;jettySize=auto;html=1;" edge="1" parent="1" source="5vP0ZJHYgd1w3xuM4kYP-23" target="E1HJxTZ1KoTLzzK9DHDM-2">
          <mxGeometry relative="1" as="geometry" />
        </mxCell>
        <mxCell id="5vP0ZJHYgd1w3xuM4kYP-23" value="&lt;table&gt;&lt;tbody&gt;&lt;tr&gt;&lt;td&gt;$$1$$&lt;/td&gt;&lt;/tr&gt;&lt;tr&gt;&lt;td&gt;$$1$$&lt;/td&gt;&lt;/tr&gt;&lt;/tbody&gt;&lt;/table&gt;" style="whiteSpace=wrap;html=1;aspect=fixed;" parent="1" vertex="1">
          <mxGeometry x="1120" y="160" width="80" height="80" as="geometry" />
        </mxCell>
        <mxCell id="KOxhOBrrnecnhVOKgOav-31" value="" style="edgeStyle=orthogonalEdgeStyle;rounded=0;orthogonalLoop=1;jettySize=auto;html=1;" parent="1" source="5vP0ZJHYgd1w3xuM4kYP-27" target="5vP0ZJHYgd1w3xuM4kYP-28" edge="1">
          <mxGeometry relative="1" as="geometry" />
        </mxCell>
        <mxCell id="5vP0ZJHYgd1w3xuM4kYP-27" value="&lt;span style=&quot;font-size: 7px;&quot;&gt;$$\frac{1+A1*s+A2*s^2}{1+A3*s+A4*s^2}$$&lt;/span&gt;" style="whiteSpace=wrap;html=1;aspect=fixed;" parent="1" vertex="1">
          <mxGeometry x="1360" y="160" width="80" height="80" as="geometry" />
        </mxCell>
        <mxCell id="FAs9E9T3QIUfl0_epq-E-6" value="" style="edgeStyle=orthogonalEdgeStyle;rounded=0;orthogonalLoop=1;jettySize=auto;html=1;" edge="1" parent="1" source="5vP0ZJHYgd1w3xuM4kYP-28" target="E1HJxTZ1KoTLzzK9DHDM-3">
          <mxGeometry relative="1" as="geometry" />
        </mxCell>
        <mxCell id="5vP0ZJHYgd1w3xuM4kYP-28" value="&lt;font style=&quot;font-size: 7px;&quot;&gt;$$\frac{1+A5*s+A6*s^2}{1+A7*s+A8*s^2}$$&lt;/font&gt;" style="whiteSpace=wrap;html=1;aspect=fixed;" parent="1" vertex="1">
          <mxGeometry x="1480" y="160" width="80" height="80" as="geometry" />
        </mxCell>
        <mxCell id="KOxhOBrrnecnhVOKgOav-12" value="" style="endArrow=classic;html=1;rounded=0;exitX=1;exitY=0.5;exitDx=0;exitDy=0;entryX=0;entryY=0.25;entryDx=0;entryDy=0;" parent="1" source="5vP0ZJHYgd1w3xuM4kYP-1" target="5vP0ZJHYgd1w3xuM4kYP-3" edge="1">
          <mxGeometry width="50" height="50" relative="1" as="geometry">
            <mxPoint x="850" y="220" as="sourcePoint" />
            <mxPoint x="900" y="170" as="targetPoint" />
            <Array as="points">
              <mxPoint x="680" y="240" />
              <mxPoint x="680" y="300" />
            </Array>
          </mxGeometry>
        </mxCell>
        <mxCell id="KOxhOBrrnecnhVOKgOav-13" value="" style="endArrow=classic;html=1;rounded=0;exitX=1;exitY=0.5;exitDx=0;exitDy=0;entryX=0;entryY=0.75;entryDx=0;entryDy=0;" parent="1" source="5vP0ZJHYgd1w3xuM4kYP-2" target="5vP0ZJHYgd1w3xuM4kYP-3" edge="1">
          <mxGeometry width="50" height="50" relative="1" as="geometry">
            <mxPoint x="650" y="400" as="sourcePoint" />
            <mxPoint x="700" y="350" as="targetPoint" />
            <Array as="points">
              <mxPoint x="680" y="400" />
              <mxPoint x="680" y="340" />
            </Array>
          </mxGeometry>
        </mxCell>
        <mxCell id="FAs9E9T3QIUfl0_epq-E-2" value="" style="endArrow=classic;html=1;rounded=0;exitX=1;exitY=0.5;exitDx=0;exitDy=0;entryX=0;entryY=0.5;entryDx=0;entryDy=0;" edge="1" parent="1" source="GCO7xrDp6TmdYOZJOnFd-2" target="5vP0ZJHYgd1w3xuM4kYP-17">
          <mxGeometry width="50" height="50" relative="1" as="geometry">
            <mxPoint x="610" y="210" as="sourcePoint" />
            <mxPoint x="660" y="160" as="targetPoint" />
          </mxGeometry>
        </mxCell>
        <mxCell id="FAs9E9T3QIUfl0_epq-E-3" value="" style="endArrow=classic;html=1;rounded=0;exitX=1;exitY=0.5;exitDx=0;exitDy=0;entryX=0;entryY=0.5;entryDx=0;entryDy=0;" edge="1" parent="1" source="5vP0ZJHYgd1w3xuM4kYP-3" target="5vP0ZJHYgd1w3xuM4kYP-22">
          <mxGeometry width="50" height="50" relative="1" as="geometry">
            <mxPoint x="610" y="210" as="sourcePoint" />
            <mxPoint x="660" y="160" as="targetPoint" />
          </mxGeometry>
        </mxCell>
        <mxCell id="FAs9E9T3QIUfl0_epq-E-4" value="" style="endArrow=classic;html=1;rounded=0;exitX=1;exitY=0.5;exitDx=0;exitDy=0;entryX=0;entryY=0.25;entryDx=0;entryDy=0;" edge="1" parent="1" source="5vP0ZJHYgd1w3xuM4kYP-19" target="5vP0ZJHYgd1w3xuM4kYP-23">
          <mxGeometry width="50" height="50" relative="1" as="geometry">
            <mxPoint x="1030" y="280" as="sourcePoint" />
            <mxPoint x="1080" y="230" as="targetPoint" />
            <Array as="points">
              <mxPoint x="1080" y="80" />
              <mxPoint x="1080" y="180" />
            </Array>
          </mxGeometry>
        </mxCell>
        <mxCell id="FAs9E9T3QIUfl0_epq-E-5" value="" style="endArrow=classic;html=1;rounded=0;exitX=1;exitY=0.5;exitDx=0;exitDy=0;entryX=0;entryY=0.75;entryDx=0;entryDy=0;" edge="1" parent="1" source="GCO7xrDp6TmdYOZJOnFd-126" target="5vP0ZJHYgd1w3xuM4kYP-23">
          <mxGeometry width="50" height="50" relative="1" as="geometry">
            <mxPoint x="1060" y="320" as="sourcePoint" />
            <mxPoint x="1110" y="270" as="targetPoint" />
            <Array as="points">
              <mxPoint x="1080" y="320" />
              <mxPoint x="1080" y="220" />
            </Array>
          </mxGeometry>
        </mxCell>
      </root>
    </mxGraphModel>
  </diagram>
</mxfile>
